<?xml version="1.0" ?><!DOCTYPE svg  PUBLIC '-//W3C//DTD SVG 1.1//EN'  'http://www.w3.org/Graphics/SVG/1.1/DTD/svg11.dtd'><svg enable-background="new 0 0 512 512" id="Layer_1" version="1.1" viewBox="0 0 512 512" xml:space="preserve" xmlns="http://www.w3.org/2000/svg" xmlns:xlink="http://www.w3.org/1999/xlink"><circle cx="256" cy="256" fill="#553B08" id="ellipse" r="256"/><path d="M348.7,306.4V101.1H314v32.2h-0.5c-6.6-12.5-15.8-21.7-27.6-28.1c-12-6.1-24.8-9.2-39.1-9.2  c-19.4,0-35.5,3.6-48.8,11c-13.3,7.4-24,16.9-32.2,28.1c-8.2,11.5-13.8,24.3-17.4,38.3c-3.3,14.1-5.1,27.6-5.1,40.9  c0,15.3,2,29.9,6.1,43.5c4.3,13.8,10.5,25.8,18.9,36c8.4,10.2,18.9,18.4,31.2,24.5c12.5,6.1,27.1,9.2,44,9.2  c14.3,0,28.1-3.3,40.9-10c12.8-6.4,22.5-16.6,28.9-30.4h0.8V302c0,12.3-1.3,23.8-3.6,34.3c-2.6,10.2-6.6,19.2-12,26.6  c-5.4,7.4-12.5,13-20.7,17.4c-8.4,4.1-18.7,6.1-30.9,6.1c-6.1,0-12.3-0.5-18.9-1.8c-6.6-1.3-12.8-3.6-18.7-6.4  c-5.6-2.8-10.2-6.6-14.1-11.2c-4.1-4.6-6.1-10.2-6.4-16.9h-36.8c0.5,12,3.6,22.2,9.5,30.7c5.9,8.4,13,15.3,22,20.4  c8.7,5.1,18.7,8.9,29.4,11.2c10.7,2.3,21.5,3.6,31.9,3.6c35.8,0,62.1-9.2,78.7-27.3C340.3,370.5,348.7,342.9,348.7,306.4  L348.7,306.4z M245.5,295.4c-12,0-22.2-2.6-30.4-7.7c-7.9-4.9-14.6-11.5-19.4-19.9c-4.9-8.2-8.4-17.4-10.5-27.3  c-2.1-10.2-3.1-20.2-3.1-30.4c0-10.7,1.3-21,3.8-30.7c2.3-10,6.4-18.7,11.8-26.1c5.4-7.7,12-13.5,20.5-18.1  c8.4-4.3,18.7-6.6,30.4-6.6c11.5,0,21.5,2.3,29.4,6.9c8.2,4.6,14.8,10.7,19.7,18.4c5.1,7.7,8.9,16.4,11.2,25.8  c2.3,9.7,3.3,19.2,3.3,29.1c0,10.5-1.3,20.7-3.6,31.2c-2.6,10.5-6.4,19.7-11.5,27.9c-5.1,8.4-12,15.1-20.7,19.9  C268,292.8,257.7,295.4,245.5,295.4L245.5,295.4z" fill="#FFFFFF" id="logo"/></svg>